HIERARCHY
ROOT Hips
{
  OFFSET 0 0 0
  CHANNELS 6 Xposition Yposition Zposition Zrotation Xrotation Yrotation
  JOINT Spine
  {
    OFFSET 0.00000000 0.00000000 0.00000000
    CHANNELS 3 Zrotation Xrotation Yrotation
    JOINT Spine1
    {
      OFFSET 0.19000000 0.00000000 0.00000000
      CHANNELS 3 Zrotation Xrotation Yrotation
      JOINT Neck
      {
        OFFSET 0.22500000 0.00600000 0.00000000
        CHANNELS 3 Zrotation Xrotation Yrotation
        JOINT Head
        {
          OFFSET 0.14000000 0.00030878 0.00000000
          CHANNELS 3 Zrotation Xrotation Yrotation
          End Site
          {
            OFFSET 0.17000000 0.00000000 0.00000000
          }
        }
      }
      JOINT LeftShoulder
      {
        OFFSET 0.19800000 0.03700000 0.04300000
        CHANNELS 3 Zrotation Xrotation Yrotation
        JOINT LeftArm
        {
          OFFSET 0.08000000 0.00000000 0.00000000
          CHANNELS 3 Zrotation Xrotation Yrotation
          JOINT LeftForeArm
          {
            OFFSET 0.15200000 0.00000000 0.00000000
            CHANNELS 3 Zrotation Xrotation Yrotation
            JOINT LeftHand
            {
              OFFSET 0.17800000 0.00000000 0.00000000
              CHANNELS 3 Zrotation Xrotation Yrotation
              End Site
              {
                OFFSET 0.07200000 0.00000000 0.00000000
              }
            }
          }
        }
      }
      JOINT RightShoulder
      {
        OFFSET 0.19800000 0.03700000 -0.04300000
        CHANNELS 3 Zrotation Xrotation Yrotation
        JOINT RightArm
        {
          OFFSET 0.08000000 0.00000000 0.00151654
          CHANNELS 3 Zrotation Xrotation Yrotation
          JOINT RightForeArm
          {
            OFFSET 0.15200000 0.00000000 0.00000000
            CHANNELS 3 Zrotation Xrotation Yrotation
            JOINT RightHand
            {
              OFFSET 0.17800000 0.00000000 0.00000000
              CHANNELS 3 Zrotation Xrotation Yrotation
              End Site
              {
                OFFSET 0.07200000 0.00000000 0.00000000
              }
            }
          }
        }
      }
    }
  }
  JOINT LeftUpLeg
  {
    OFFSET 0.05984250 -0.07666000 0.04788790
    CHANNELS 3 Zrotation Xrotation Yrotation
    JOINT LeftLeg
    {
      OFFSET 0.16000000 0.00000000 0.00000000
      CHANNELS 3 Zrotation Xrotation Yrotation
      JOINT LeftFoot
      {
        OFFSET 0.18000000 0.00000000 0.00000000
        CHANNELS 3 Zrotation Xrotation Yrotation
        End Site
        {
          OFFSET 0.00000000 -0.10800000 0.00000000
        }
      }
    }
  }
  JOINT RightUpLeg
  {
    OFFSET 0.05984250 -0.07665980 -0.04788790
    CHANNELS 3 Zrotation Xrotation Yrotation
    JOINT RightLeg
    {
      OFFSET 0.16000000 0.00000000 0.00000000
      CHANNELS 3 Zrotation Xrotation Yrotation
      JOINT RightFoot
      {
        OFFSET 0.18000000 0.00000000 0.00000000
        CHANNELS 3 Zrotation Xrotation Yrotation
        End Site
        {
          OFFSET 0.00000000 -0.10800000 0.00000000
        }
      }
    }
  }
  JOINT Tail
  {
    OFFSET 0.06836960 -0.00722574 0.00000000
    CHANNELS 3 Zrotation Xrotation Yrotation
    JOINT Tail1
    {
      OFFSET 0.12000000 0.00000000 0.00000000
      CHANNELS 3 Zrotation Xrotation Yrotation
      End Site
      {
        OFFSET 0.12000000 0.00000000 0.00000000
      }
    }
  }
}
MOTION
Frames:	15
Frame Time:	0.0166667
0.0000000 0.4620560 0.0000000 -5.00515 -0.45871 -0.04017 -169.131 4.1887 1.3113 -3.50906 1.97401 9.40661 -2.66432 -16.014 21.3086 -91.7173 65.2712 109.123 -106.002 -26.9062 -147.667 119.394 -34.3799 -136.868 -37.3932 15.4377 -4.81685 -21.8362 1.65937 -9.942 73.6965 -36.603 52.8591 39.9919 -18.2283 -49.8597 -63.1842 -18.9526 1.83755 -13.9131 -0.478181 4.61141 -95.8032 -11.6864 -14.2255 71.1157 7.03094 10.4096 58.5479 -4.26017 -7.39365 -131.787 4.77294 -5.53862 61.4777 -10.2842 -5.33203 56.8344 2.45149 -0.134847 -37.4009 -23.0269 1.30089 8.0391 21.4927 -1.87425 
-0.0135730 0.4604760 -0.0018174 -4.19457 -0.89095 -2.72896 -170.215 3.86319 0.28602 -2.86349 2.01797 8.86116 -3.23975 -16.328 20.9288 -91.2888 64.8266 109.236 -106.001 -27.2137 -146.767 122.004 -36.5803 -135.983 -34.9694 14.8557 -4.81493 -19.3772 0.938597 -8.08499 73.8716 -36.2251 52.7132 41.473 -19.44 -50.7598 -64.9 -19.3175 1.05176 -14.9997 -0.717924 5.46843 -96.1544 -11.5604 -12.0009 72.3273 8.14184 8.97354 59.9039 -4.30585 -7.36453 -132.481 4.03701 -6.66923 65.0144 -10.8228 -4.13609 54.8409 2.23219 -0.169793 -38.293 -23.9849 1.74666 8.3117 22.6272 -1.77801 
-0.0278664 0.4591430 -0.0033384 -3.00871 -0.76286 -5.52326 -171.301 3.82351 -1.09826 -2.72739 2.3331 8.43768 -3.8153 -16.5737 20.6233 -91.1775 64.6698 109.181 -106.77 -28.2369 -146.523 122.872 -38.8115 -135.75 -35.3283 9.60539 -3.53478 -13.6613 0.583907 -6.25352 74.1402 -35.5756 52.3589 43.133 -21.8282 -51.0775 -67.5838 -19.7292 0.254007 -15.9475 -0.960644 6.39202 -98.0284 -11.3245 -10.9026 74.5977 9.28404 7.64971 60.7898 -4.27253 -7.2701 -132.647 3.78974 -7.51 66.6968 -11.3133 -3.67461 54.0438 2.14153 -0.179608 -39.9105 -25.7682 1.89832 8.36495 23.9869 -1.72202 
-0.0425247 0.4582570 -0.0047743 -1.86576 -0.15103 -8.39302 -171.624 3.77559 -3.35116 -3.72681 2.39498 9.37052 -3.93776 -16.4751 19.5041 -91.6891 64.2486 109.626 -106.956 -29.0253 -145.017 121.784 -39.0808 -136.237 -36.4876 3.56726 -1.74816 -5.90895 -0.248992 -0.249537 73.8786 -34.873 50.2711 44.0656 -24.8914 -50.8795 -69.2502 -20.8003 0.679273 -16.85 -1.33085 7.70381 -100.62 -11.041 -11.1841 76.9029 9.57807 6.81681 61.4027 -4.06773 -7.01931 -132.577 2.75303 -8.78955 68.3395 -15.2211 -2.76726 53.2973 2.48776 0.290302 -41.8851 -28.2862 1.60569 8.06139 25.7187 -1.68095 
-0.0575194 0.4572020 -0.0058343 -0.25593 0.76279 -11.2410 -172.16 3.96692 -5.51293 -4.93937 2.71544 9.96149 -4.05854 -16.4186 19.1175 -91.6295 64.8596 109.227 -107.762 -30.4076 -144.068 120.759 -39.7845 -135.912 -42.5643 -16.8996 1.11831 11.8763 2.33987 -3.48757 73.9834 -33.8675 48.6491 46.23 -27.283 -50.269 -71.8729 -21.1114 -0.0696801 -17.2213 -1.36681 7.92854 -104.297 -10.602 -12.1491 79.9747 12.6488 6.15889 57.6926 -4.10044 -7.08791 -132.007 2.97584 -9.65438 68.5145 -18.078 -2.74879 52.977 2.90853 0.772403 -44.2205 -30.9721 0.729293 7.61797 27.5537 -1.71278 
-0.0721413 0.4567560 -0.0069908 1.16212 1.68475 -13.8437 -172.294 4.06213 -7.34601 -6.46288 2.90378 10.3202 -3.87361 -16.498 19.1753 -91.348 65.512 108.519 -108.413 -31.888 -142.508 123.218 -42.2332 -133.972 -47.8956 -34.7388 2.93634 27.1012 3.02611 -12.7073 74.5841 -32.1694 47.0731 47.567 -29.5424 -49.6488 -73.6234 -22.5628 -0.126395 -17.9275 -1.22079 7.56435 -108.781 -9.84409 -13.6997 84.2384 14.407 5.40385 52.6289 -3.96652 -7.01445 -131.143 3.69056 -9.60448 68.5356 -21.1093 -3.37226 53.1651 3.70029 1.5196 -46.4679 -33.4822 -0.61941 7.08303 29.6111 -1.86817 
-0.0868218 0.4559900 -0.0084472 2.44839 2.60130 -16.5246 -172.014 3.98998 -9.5726 -8.47113 2.86228 11.0503 -3.62299 -16.3561 18.8539 -91.4741 65.4053 108.944 -109.031 -33.2117 -141.328 128.483 -44.993 -131.658 -50.7345 -49.2503 4.8274 39.3955 1.33211 -21.6046 75.1645 -30.4006 45.087 49.2254 -31.9174 -48.0132 -75.4398 -22.1487 -0.806817 -17.7588 -1.2575 7.83828 -114.235 -8.74233 -15.2858 89.4251 15.0956 4.5899 49.3429 -3.76719 -6.81503 -130.259 4.19575 -9.69078 68.8885 -23.6526 -3.78335 53.4883 4.5229 2.26422 -49.2892 -36.4849 -2.26321 7.3956 32.2258 -2.51189 
-0.1017825 0.4548290 -0.0101486 3.80933 3.28097 -19.0657 -172.619 3.76836 -11.9218 -9.33795 2.61076 12.0852 -3.46636 -16.1264 18.6937 -92.1529 65.1437 109.71 -109.983 -34.9724 -140.249 131.746 -46.4263 -130.372 -52.3905 -63.6107 10.563 45.5365 -2.25299 -33.6503 75.721 -28.9196 43.4904 49.5957 -34.5227 -47.0184 -75.9521 -22.2988 -0.605865 -18.1036 -1.45772 8.42593 -119.69 -7.37131 -17.0822 94.0729 15.0584 4.02543 46.0077 -3.50067 -6.54568 -129.372 4.2525 -10.0602 69.0559 -26.2492 -3.87119 53.7664 5.10657 2.81793 -51.6556 -38.8707 -3.98005 6.92011 34.6999 -2.90786 
-0.1163076 0.4538410 -0.0120361 4.73352 3.75784 -21.2250 -173.085 3.31888 -13.9312 -9.80488 2.09156 13.1016 -3.516 -15.5043 18.6651 -93.3012 65.303 110.761 -110.779 -36.845 -138.639 133.641 -46.4556 -129.658 -47.2701 -72.9371 23.8911 44.4816 -4.24306 -42.8795 76.0765 -27.8144 41.9561 49.5836 -36.9696 -46.1571 -75.9637 -22.9197 -0.500547 -18.6972 -1.41947 8.36143 -125.042 -5.98908 -18.8641 97.8161 14.5874 3.68404 42.615 -3.19943 -6.18895 -128.489 3.8685 -10.5499 69.7858 -27.9194 -3.60492 54.0759 5.38975 3.06091 -53.7321 -40.8642 -5.72476 6.54855 37.2607 -3.3981 
-0.1295720 0.4542220 -0.0144509 5.32388 4.34881 -23.3348 -173.277 2.72349 -15.9247 -10.0356 1.53465 13.8585 -3.42626 -14.9354 19.0343 -95.2205 64.7179 112.374 -111.647 -38.8213 -137.163 134.429 -42.8123 -128.639 -19.5396 -79.0277 58.8134 35.7318 -3.04403 -53.4614 76.6419 -26.4793 40.4628 48.2538 -38.9166 -45.4543 -75.2215 -24.4115 -0.314243 -19.827 -1.53995 8.68822 -129.223 -4.39838 -21.1308 99.4677 15.8219 3.9101 37.5632 -3.11737 -6.12634 -126.932 3.51311 -10.7239 69.5258 -30.037 -3.75268 54.8805 5.50869 3.11504 -55.4552 -42.7589 -7.65129 6.39139 39.8543 -4.02924 
-0.1421867 0.4554370 -0.0173403 5.22257 4.56142 -24.9403 -173.038 1.90035 -17.4684 -10.2055 0.767559 14.4902 -3.09592 -14.5754 19.7991 -96.5244 64.1751 113.51 -112.265 -40.1158 -136.384 134.747 -37.2984 -127.55 -26.0409 -77.3001 58.3742 32.1949 -1.48116 -52.2573 77.1141 -25.2515 38.7375 47.4192 -40.999 -44.6336 -74.4622 -22.9185 0.254154 -18.1997 -1.63329 9.00836 -133.886 -3.04825 -23.106 100.448 15.8897 4.47154 36.7222 -3.03143 -5.99565 -124.857 2.96574 -10.0647 69.0699 -32.0025 -4.11154 55.8351 5.66948 3.17319 -56.3419 -43.8364 -9.26378 6.4323 42.2706 -4.68644 
-0.1542866 0.4558720 -0.0206683 4.74162 4.57173 -26.4892 -172.644 0.845436 -19.3637 -10.3887 -0.308578 15.6641 -2.49433 -14.3907 20.4274 -97.9051 63.0398 114.533 -112.687 -40.7956 -136.219 134.012 -29.6613 -126.74 -34.6612 -74.7268 53.0453 30.5779 -0.153127 -47.8067 77.498 -24.1266 36.7741 48.2659 -41.4475 -43.0898 -74.1458 -22.3938 -0.417808 -17.7392 -0.768177 6.59455 -137.884 -2.22805 -25.1868 99.783 16.4915 5.58122 35.5531 -3.04455 -5.99822 -123.177 1.8639 -10.1751 70.1597 -32.2619 -3.39137 56.4916 5.74359 3.13042 -56.6448 -44.6277 -10.5261 6.5509 44.5587 -5.29944 
-0.1663067 0.4561030 -0.0244241 4.06598 4.42233 -27.7801 -172.517 -0.238386 -21.754 -10.0777 -1.65136 18.0753 -1.85145 -14.1286 20.5898 -99.3718 62.0312 115.316 -112.845 -41.0832 -136.102 134.578 -23.127 -125.121 -56.6705 -66.5018 33.0309 28.1063 1.22292 -38.4551 77.6511 -23.3439 34.7768 46.6489 -42.606 -42.0739 -71.5983 -21.8634 -0.85881 -19.5849 -1.71997 9.327 -141.444 -1.60699 -26.7439 97.9282 16.3129 7.06667 36.3694 -3.07985 -6.03268 -121.417 0.449322 -10.6168 71.5263 -32.4984 -2.33097 57.218 5.81929 3.07752 -56.6274 -44.9969 -11.6311 6.71371 46.6186 -5.84233 
-0.1782298 0.4566730 -0.0285972 3.26607 4.25084 -28.7850 -172.222 -1.24542 -23.7832 -9.82786 -2.91719 20.435 -1.15362 -14.3246 20.5855 -100.394 60.3171 115.716 -112.79 -41.2915 -135.626 133.714 -17.4488 -122.92 -70.2996 -48.754 19.5483 23.0993 2.64103 -20.6976 78.1324 -22.2722 33.0674 46.9944 -42.9894 -40.4059 -70.1484 -22.9954 -0.9705 -19.5454 -0.649247 6.30934 -144.005 -1.32872 -28.1286 94.0454 16.2257 9.21407 37.4293 -3.25805 -6.25297 -118.889 -0.933978 -11.0551 71.562 -32.6077 -1.44299 56.9663 5.70314 3.02677 -56.4984 -45.0909 -12.699 6.94829 48.48 -6.3549 
-0.1905274 0.4571140 -0.0332641 2.67080 4.06499 -29.4521 -172.536 -1.91054 -25.4614 -8.93757 -3.91053 22.9071 -0.374956 -14.8236 20.596 -101.65 58.6531 115.425 -112.637 -41.3642 -135.148 133.03 -12.4993 -121.192 -73.1096 -22.3101 13.8833 6.74495 1.36186 -2.32671 78.9338 -21.0104 31.9617 44.0711 -44.4765 -40.5285 -66.9681 -23.3693 -0.223231 -19.9396 -1.02211 7.26799 -145.836 -0.973294 -29.4675 88.4558 17.186 12.223 40.4027 -3.77073 -6.89845 -116.787 -2.33583 -11.6349 72.2306 -32.1203 -0.569035 57.2882 5.58612 2.86012 -56.519 -44.8527 -13.8828 7.16258 49.9563 -6.75347 
